<svg id="Layer_1" data-name="Layer 1" xmlns="http://www.w3.org/2000/svg" viewBox="0 0 730.989 532.675">
  <g>
    <rect x="78.731" y="10" width="566.042" height="449.29" rx="38.73" fill="#c1d8ed"></rect>
    <g>
      <rect x="78.731" width="566.042" height="449.29" rx="38.73" fill="#dee8f5"></rect>
      <rect x="297.018" y="377.339" width="129.467" height="146.552" fill="#dee8f5"></rect>
      <rect x="237.483" y="496.669" width="261.946" height="36.006" rx="18.001" fill="#dee8f5"></rect>
    </g>
    <g>
      <rect x="107.822" y="34.153" width="504.407" height="351.185" fill="#fff"></rect>
      <rect x="107.822" y="34.153" width="504.407" height="23.694" fill="#c1d8ed"></rect>
      <circle cx="599.209" cy="45.999" r="6.5" fill="#fff"></circle>
    </g>
  </g>
  <g>
    <rect x="273.964" y="175.088" width="175.255" height="116.476" fill="#dee8f5"></rect>
    <rect id="sh" x="270.14" y="173.218" width="181.038" height="29.601" fill="#c1d8ed" opacity="0.55"></rect>
    <g id="stairs">
      <rect x="241.246" y="299.734" width="240.689" height="12.077" fill="#f3f5fd"></rect>
      <rect x="249.69" y="287.657" width="223.802" height="12.077" fill="#f3f5fd"></rect>
      <rect x="249.69" y="296.503" width="223.802" height="3.231" fill="#dee8f5"></rect>
      <rect x="241.246" y="308.581" width="240.689" height="3.231" fill="#dee8f5"></rect>
      <rect x="233.495" y="311.812" width="256.513" height="12.077" fill="#f3f5fd"></rect>
      <rect x="233.495" y="320.658" width="256.513" height="3.231" fill="#dee8f5"></rect>
    </g>
    <g id="pillars">
      <rect x="266.731" y="184.166" width="19.368" height="98.056" fill="#f3f5fd"></rect>
      <rect x="315.588" y="184.166" width="19.368" height="98.056" fill="#f3f5fd"></rect>
      <rect x="437.083" y="184.166" width="19.368" height="98.056" fill="#f3f5fd"></rect>
      <path d="M260.9,175.088h31.032a0,0,0,0,1,0,0v11.127a1.406,1.406,0,0,1-1.406,1.406H262.3a1.406,1.406,0,0,1-1.406-1.406V175.088A0,0,0,0,1,260.9,175.088Z" fill="#c1d8ed"></path>
      <path d="M309.756,175.088h31.032a0,0,0,0,1,0,0v11.127a1.406,1.406,0,0,1-1.406,1.406h-28.22a1.406,1.406,0,0,1-1.406-1.406V175.088A0,0,0,0,1,309.756,175.088Z" fill="#c1d8ed"></path>
      <path d="M431.251,175.088h31.032a0,0,0,0,1,0,0v11.127a1.406,1.406,0,0,1-1.406,1.406h-28.22a1.406,1.406,0,0,1-1.406-1.406V175.088A0,0,0,0,1,431.251,175.088Z" fill="#c1d8ed"></path>
      <path d="M262.3,278.866h28.22a1.406,1.406,0,0,1,1.406,1.406v7.385a0,0,0,0,1,0,0H260.9a0,0,0,0,1,0,0v-7.385A1.406,1.406,0,0,1,262.3,278.866Z" fill="#c1d8ed"></path>
      <path d="M311.162,278.866h28.22a1.406,1.406,0,0,1,1.406,1.406v7.385a0,0,0,0,1,0,0H309.756a0,0,0,0,1,0,0v-7.385A1.406,1.406,0,0,1,311.162,278.866Z" fill="#c1d8ed"></path>
      <path d="M432.657,278.866h28.22a1.406,1.406,0,0,1,1.406,1.406v7.385a0,0,0,0,1,0,0H431.251a0,0,0,0,1,0,0v-7.385A1.406,1.406,0,0,1,432.657,278.866Z" fill="#c1d8ed"></path>
      <rect x="272.004" y="192.026" width="1.95" height="82.337" rx="0.975" fill="#c1d8ed"></rect>
      <rect x="278.876" y="192.026" width="1.95" height="82.337" rx="0.975" fill="#c1d8ed"></rect>
      <rect x="320.862" y="192.026" width="1.95" height="82.337" rx="0.975" fill="#c1d8ed"></rect>
      <rect x="327.733" y="192.026" width="1.95" height="82.337" rx="0.975" fill="#c1d8ed"></rect>
      <rect x="389.734" y="184.166" width="19.368" height="98.056" fill="#f3f5fd"></rect>
      <path d="M383.9,175.088h31.032a0,0,0,0,1,0,0v11.127a1.406,1.406,0,0,1-1.406,1.406h-28.22a1.406,1.406,0,0,1-1.406-1.406V175.088A0,0,0,0,1,383.9,175.088Z" fill="#c1d8ed"></path>
      <path d="M385.307,278.866h28.22a1.406,1.406,0,0,1,1.406,1.406v7.385a0,0,0,0,1,0,0H383.9a0,0,0,0,1,0,0v-7.385A1.406,1.406,0,0,1,385.307,278.866Z" fill="#c1d8ed"></path>
      <rect x="395.007" y="192.026" width="1.95" height="82.337" rx="0.975" fill="#c1d8ed"></rect>
      <rect x="401.878" y="192.026" width="1.95" height="82.337" rx="0.975" fill="#c1d8ed"></rect>
      <rect x="442.357" y="192.026" width="1.95" height="82.337" rx="0.975" fill="#c1d8ed"></rect>
      <rect x="449.228" y="192.026" width="1.95" height="82.337" rx="0.975" fill="#c1d8ed"></rect>
    </g>
    <path d="M470.75,170.722v7.132A1.447,1.447,0,0,1,469.3,179.3H253.429a1.447,1.447,0,0,1-1.447-1.447v-6.826a2.067,2.067,0,0,1,.9-1.707L360.427,96.129a2.068,2.068,0,0,1,2.325,0l107.094,72.885A2.067,2.067,0,0,1,470.75,170.722Z" fill="#dee8f5"></path>
    <path d="M441.927,167.264H281.255a.556.556,0,0,1-.313-1.016l80.335-54.675a.553.553,0,0,1,.625,0l80.338,54.675A.556.556,0,0,1,441.927,167.264Z" fill="#f3f5fd"></path>
  </g>
  <g>
    <path d="M556.994,394.316s-22.04-16.341-29.881-9.915c-7.1,5.817,1.122,29.03,1.122,29.03S547.181,415.141,556.994,394.316Z" fill="#dee8f5"></path>
    <path d="M702.353,447.522c0,41.178-33.871,74.558-87.143,74.558s-96.457-33.38-96.457-74.558,43.185-74.558,96.457-74.558S702.353,406.345,702.353,447.522Z" fill="#c1d8ed"></path>
    <path d="M574.68,490.313h-6.214a5.5,5.5,0,0,1-1.58,0h-6.214a6.079,6.079,0,0,0-6.079,6.079v30.5a5.78,5.78,0,0,0,5.78,5.78h6.812c.166,0,.329-.011.491-.025.162.014.325.025.491.025h6.812a5.78,5.78,0,0,0,5.78-5.78v-30.5A6.079,6.079,0,0,0,574.68,490.313Z" fill="#c1d8ed"></path>
    <path d="M657.146,490.313h-6.214a5.5,5.5,0,0,1-1.58,0h-6.214a6.079,6.079,0,0,0-6.079,6.079v30.5a5.78,5.78,0,0,0,5.78,5.78h6.812c.166,0,.329-.011.491-.025.162.014.325.025.491.025h6.812a5.779,5.779,0,0,0,5.779-5.78v-30.5A6.079,6.079,0,0,0,657.146,490.313Z" fill="#c1d8ed"></path>
    <circle cx="536.493" cy="420.075" r="3.15" fill="#111314"></circle>
    <g id="tail">
      <path d="M711.732,460.171a12.422,12.422,0,0,1-2.195-.2,13.311,13.311,0,0,1-9.408-6.872,12.971,12.971,0,0,1-.029-11.639,16.687,16.687,0,0,1,4.237-5.763,49.655,49.655,0,0,0-13.555-1.172,3.57,3.57,0,0,1-.532-7.121c.647-.048,14.255-.991,23.908,4.532,7.422-.446,14.5,3.046,14.861,3.227a3.57,3.57,0,0,1-3.2,6.383,25.528,25.528,0,0,0-3.808-1.451,18.311,18.311,0,0,1,1.7,6.91,12.34,12.34,0,0,1-3.969,10.192A12.117,12.117,0,0,1,711.732,460.171Zm.732-20.793c-.3.074-.6.161-.883.262a8.532,8.532,0,0,0-5,4.813,5.847,5.847,0,0,0-.124,5.35,6.292,6.292,0,0,0,4.34,3.144,5.03,5.03,0,0,0,4.206-1.1,5.3,5.3,0,0,0,1.57-4.449,10.376,10.376,0,0,0-3.6-7.6C712.81,439.659,712.639,439.517,712.464,439.378Z" fill="#c1d8ed"></path>
      <path d="M703.341,446.53a3.573,3.573,0,0,1-3.241-5.066,15.524,15.524,0,0,1,9.138-8.569c8.875-3.11,19.339,2.051,19.781,2.272a3.57,3.57,0,0,1-3.2,6.383c-2.267-1.125-9.258-3.666-14.237-1.91a8.532,8.532,0,0,0-5,4.813A3.57,3.57,0,0,1,703.341,446.53Z" fill="#dee8f5"></path>
    </g>
    <path d="M552.3,402.083a4.631,4.631,0,0,1-.623-5.93c4.193-6.162,13.8-18.811,20.412-16.223,6.054,2.368,7.506,17.532,7.854,24.366a4.3,4.3,0,0,1-3,4.451C572.094,410.067,562.228,411.067,552.3,402.083Z" fill="#dee8f5"></path>
    <polyline points="501.398 435.047 572.266 435.668 572.266 482.451 507.607 482.166" fill="#c1d8ed"></polyline>
    <ellipse cx="504.622" cy="458.606" rx="10.682" ry="23.87" transform="translate(-63.025 80.796) rotate(-8.618)" fill="#dee8f5"></ellipse>
    <rect x="587.595" y="379.26" width="54.31" height="6.877" rx="3.438" fill="#e9eff4"></rect>
    <path d="M641.612,384.091a3.444,3.444,0,0,1-3.145,2.046H591.032a3.43,3.43,0,0,1-3.142-2.049,3.328,3.328,0,0,1,.714-1.043,3.4,3.4,0,0,1,2.428-1.009h47.435A3.433,3.433,0,0,1,641.612,384.091Z" fill="#0f1011"></path>
  </g>
  <g>
    <g>
      <circle cx="622.844" cy="293.97" r="27.632" fill="#0cbc8b"></circle>
      <g opacity="0.29">
        <circle cx="622.844" cy="293.97" r="17.913" fill="#fff"></circle>
      </g>
    </g>
    <path d="M616.98,300.368l1.672-2.591a6.082,6.082,0,0,0,3.714,1.532c1.477,0,2.127-.612,2.127-1.8,0-2.681-6.878-2.633-6.878-7.334,0-3.023,2.094-4.948,5.395-4.948a6.459,6.459,0,0,1,4.96,2.211l-1.916,2.195a4.026,4.026,0,0,0-2.838-1.315c-1.254,0-1.934.5-1.934,1.676,0,2.485,6.878,2.268,6.878,7.248,0,2.992-1.98,5.156-5.794,5.156A8.676,8.676,0,0,1,616.98,300.368Zm4.583-17.692h2.542v3.752h-2.542Zm0,18.16h2.542v4.117h-2.542Z" fill="#fff"></path>
  </g>
  <g>
    <g>
      <circle cx="640.634" cy="225.777" r="22.958" fill="#0cbc8b"></circle>
      <g opacity="0.29">
        <circle cx="640.634" cy="225.777" r="14.883" fill="#fff"></circle>
      </g>
    </g>
    <path d="M635.762,231.093l1.389-2.153a5.053,5.053,0,0,0,3.086,1.274c1.227,0,1.767-.509,1.767-1.5,0-2.227-5.714-2.187-5.714-6.093,0-2.511,1.739-4.111,4.482-4.111a5.365,5.365,0,0,1,4.121,1.837l-1.592,1.824a3.344,3.344,0,0,0-2.358-1.093c-1.041,0-1.606.42-1.606,1.393,0,2.064,5.714,1.884,5.714,6.022,0,2.486-1.645,4.284-4.814,4.284A7.206,7.206,0,0,1,635.762,231.093Zm3.808-14.7h2.112v3.117H639.57Zm0,15.088h2.112V234.9H639.57Z" fill="#fff"></path>
  </g>
  <path d="M156.512,103.689a32.062,32.062,0,0,0-9.134,1.316,51.14,51.14,0,0,0-96.514.072,33.654,33.654,0,0,0-4.356-.286,32.846,32.846,0,0,0-32.839,32.846v.063a24.675,24.675,0,0,0,24.67,24.633H164.015a24.667,24.667,0,0,0,24.668-24.377c.012-1,.017-1.724.017-2.079A32.19,32.19,0,0,0,156.512,103.689Z" fill="#9ebcea"></path>
  <g>
    <path d="M87.342,119.937a19.6,19.6,0,0,1,27.686,0,1.78,1.78,0,0,0,2.517-2.517,23.164,23.164,0,0,0-32.721,0,1.78,1.78,0,1,0,2.518,2.517Z" fill="#fff"></path>
    <g>
      <path d="M79.791,112.386a30.289,30.289,0,0,1,42.788,0,1.78,1.78,0,1,0,2.517-2.517,33.853,33.853,0,0,0-47.822,0,1.78,1.78,0,0,0,2.517,2.517Z" fill="#fff"></path>
      <path d="M94.892,127.487a8.91,8.91,0,0,1,12.585,0,1.78,1.78,0,0,0,2.517-2.517,12.472,12.472,0,0,0-17.618,0,1.779,1.779,0,0,0,2.516,2.517Z" fill="#fff"></path>
      <circle cx="101.185" cy="135.12" r="3.726" fill="#fff"></circle>
    </g>
  </g>
  <g>
    <path d="M225.281,292.114a3.817,3.817,0,0,1-3.817-3.818V269.813c0-10.219,8.874-18.534,19.782-18.534s19.783,8.315,19.783,18.534v17.214a3.818,3.818,0,0,1-7.635,0V269.813c0-6.009-5.45-10.9-12.148-10.9s-12.147,4.89-12.147,10.9V288.3A3.818,3.818,0,0,1,225.281,292.114Z" fill="#0cbc8b"></path>
    <path d="M225.281,292.114a3.817,3.817,0,0,1-3.817-3.818V269.813c0-10.219,8.874-18.534,19.782-18.534s19.783,8.315,19.783,18.534v17.214a3.818,3.818,0,0,1-7.635,0V269.813c0-6.009-5.45-10.9-12.148-10.9s-12.147,4.89-12.147,10.9V288.3A3.818,3.818,0,0,1,225.281,292.114Z" fill="#0f1011" opacity="0.1"></path>
    <rect x="205.929" y="281.002" width="70.634" height="54.989" rx="6.158" fill="#0cbc8b"></rect>
    <path d="M235.441,301.22a5.81,5.81,0,0,0,3.27,5.225v8.921a2.535,2.535,0,0,0,5.07,0v-8.921a5.806,5.806,0,1,0-8.34-5.225Z" fill="#0cbc8b"></path>
    <path d="M235.441,301.22a5.81,5.81,0,0,0,3.27,5.225v8.921a2.535,2.535,0,0,0,5.07,0v-8.921a5.806,5.806,0,1,0-8.34-5.225Z" fill="#0f1011" opacity="0.1"></path>
  </g>
  <g>
    <g>
      <path d="M638.819,384.517H590.956L569.7,363.259a1.163,1.163,0,0,1,0-1.752l22.18-22.18a1.161,1.161,0,0,1,1.751,0l1.062,1.062,4.379,4.378,8.02,8.021,3.186,3.186L618.3,364l8.179,8.179,3.559,3.558,5.3,5.3Z" fill="#8ddbe0"></path>
      <path d="M633.565,384.517H596.21L577.588,365.9a4.977,4.977,0,0,0,0-7.015l11.663-11.663a4.979,4.979,0,0,0,7.015,0l1.015,1.016,15.911,15.911,8.161,8.16L632,382.952Z" fill="#fff" opacity="0.47"></path>
      <circle cx="592.229" cy="361.771" r="3.1" fill="#8ddbe0"></circle>
      <path d="M616.089,384.517H599.945a10.637,10.637,0,0,1,.531-14.5c.159-.159.326-.317.494-.466a10.67,10.67,0,0,1,14.588.466,10.7,10.7,0,0,1,2.208,3.223A10.629,10.629,0,0,1,616.089,384.517Z" fill="#8ddbe0"></path>
      <path d="M602.888,381.759,604,380.65a5.608,5.608,0,0,1-.754-1.3,4.275,4.275,0,0,1-.355-1.5l1.808-.389a5.236,5.236,0,0,0,.322,1.287,2.811,2.811,0,0,0,.621.943,1.447,1.447,0,0,0,.871.494,1.027,1.027,0,0,0,.793-.361.9.9,0,0,0,.272-.7,4.1,4.1,0,0,0-.161-.927c-.1-.34-.209-.7-.339-1.07a5.579,5.579,0,0,1-.266-1.143,3.263,3.263,0,0,1,.056-1.142,2.205,2.205,0,0,1,.626-1.06,2.9,2.9,0,0,1,1.808-.909,2.937,2.937,0,0,1,1.931.543l1.142-1.142,1.076,1.076-1.12,1.12a3.468,3.468,0,0,1,.61,1.254,4.835,4.835,0,0,1,.133,1.309l-1.753.111a3.58,3.58,0,0,0-.16-.993,1.974,1.974,0,0,0-.494-.771,1.371,1.371,0,0,0-.777-.444.921.921,0,0,0-.754.333.8.8,0,0,0-.233.666,3.983,3.983,0,0,0,.194.892q.16.5.361,1.049a5.321,5.321,0,0,1,.272,1.137,3.171,3.171,0,0,1-.072,1.159,2.421,2.421,0,0,1-.677,1.109,3.121,3.121,0,0,1-1.8.938,3.006,3.006,0,0,1-2.058-.538l-1.153,1.154Z" fill="#fff"></path>
    </g>
    <g>
      <path d="M636.285,384.517H601.194l-3.019-11.086-2.953-10.862v-.009l-.829-3v-.01l-3.018-11.085-1.49-5.478a1.18,1.18,0,0,1,.875-1.528l3.931-1.071,26.335-7.164a1.175,1.175,0,0,1,1.528.867l12.781,46.941Z" fill="#8ddbe0"></path>
      <path d="M632.429,384.517H605.05l-.6-2.171L604,380.651v-.009l-.783-2.86-2.245-8.235-5.543-20.355a4.816,4.816,0,0,0,1.854-.959,5.009,5.009,0,0,0,1.789-3.466,4.874,4.874,0,0,0-.159-1.667l15.921-4.332a4.976,4.976,0,0,0,6.083,3.484l9.12,33.48,1.965,7.22Z" fill="#fff" opacity="0.47"></path>
      <circle cx="610.189" cy="352.881" r="3.1" fill="#8ddbe0"></circle>
      <path d="M626.318,377.269a10.581,10.581,0,0,1-6.856,7.248h-6.848a10.793,10.793,0,0,1-4.266-2.73,9.768,9.768,0,0,1-1.341-1.732,10.419,10.419,0,0,1-1.239-2.832A10.647,10.647,0,0,1,608.5,366.9a10.464,10.464,0,0,1,4.7-2.757c.019-.01.037-.01.056-.019a10.686,10.686,0,0,1,13.1,7.49c.046.186.093.372.13.559A10.331,10.331,0,0,1,626.318,377.269Z" fill="#8ddbe0"></path>
      <path d="M609.518,375.524l1.514-.413a5.594,5.594,0,0,1-.011-1.5,4.294,4.294,0,0,1,.435-1.476l1.763.561a5.256,5.256,0,0,0-.36,1.276,2.838,2.838,0,0,0,.071,1.127,1.45,1.45,0,0,0,.511.861,1.027,1.027,0,0,0,.868.081.9.9,0,0,0,.585-.477,4.01,4.01,0,0,0,.32-.884q.129-.514.238-1.1a5.578,5.578,0,0,1,.336-1.124,3.292,3.292,0,0,1,.616-.964,2.19,2.19,0,0,1,1.07-.608,2.889,2.889,0,0,1,2.021.108,2.932,2.932,0,0,1,1.406,1.43L622.46,372l.4,1.469-1.529.416a3.46,3.46,0,0,1-.093,1.391,4.86,4.86,0,0,1-.534,1.2l-1.577-.774a3.625,3.625,0,0,0,.354-.941,1.981,1.981,0,0,0-.046-.915,1.363,1.363,0,0,0-.454-.77.921.921,0,0,0-.82-.086.8.8,0,0,0-.533.462,3.969,3.969,0,0,0-.274.872c-.071.338-.14.7-.208,1.089a5.257,5.257,0,0,1-.329,1.122,3.16,3.16,0,0,1-.638.97,2.412,2.412,0,0,1-1.138.627,3.116,3.116,0,0,1-2.03-.081,3,3,0,0,1-1.519-1.489l-1.574.429Z" fill="#fff"></path>
    </g>
  </g>
  <g>
    <polygon points="417.63 266.35 426.115 330.136 471.351 301.772 417.63 266.35" fill="#9ebcea"></polygon>
    <rect x="442.23" y="296.25" width="13.005" height="39.408" transform="translate(-99.29 286.652) rotate(-32.089)" fill="#9ebcea"></rect>
  </g>
  <g>
    <g>
      <rect x="4.329" y="234.527" width="153.811" height="293.818" rx="16.697" transform="translate(162.47 762.872) rotate(-180)" fill="#fff"></rect>
      <path d="M141.443,532.675H21.026A21.051,21.051,0,0,1,0,511.649V251.224A21.051,21.051,0,0,1,21.026,230.2H141.443a21.051,21.051,0,0,1,21.027,21.027V511.649A21.051,21.051,0,0,1,141.443,532.675ZM21.026,238.856A12.381,12.381,0,0,0,8.659,251.224V511.649a12.381,12.381,0,0,0,12.367,12.367H141.443a12.381,12.381,0,0,0,12.368-12.367V251.224a12.382,12.382,0,0,0-12.368-12.368Z" fill="#dee8f5"></path>
    </g>
    <path d="M62.527,234.527H99.943a7.658,7.658,0,0,1,7.658,7.658v10.231a0,0,0,0,1,0,0H54.869a0,0,0,0,1,0,0V242.185A7.658,7.658,0,0,1,62.527,234.527Z" transform="translate(162.47 486.943) rotate(-180)" fill="#dee8f5"></path>
  </g>
  <g>
    <rect x="22.36" y="310.836" width="117.751" height="72.192" rx="6.335" fill="#262626"></rect>
    <g>
      <rect x="32.115" y="320.592" width="17.853" height="13.268" rx="3.437" fill="#fff"></rect>
      <path d="M49.968,322.064v3.113H43.919l-.975-.975v-3.61H48.5A1.472,1.472,0,0,1,49.968,322.064Z" fill="#0cbc8b"></path>
      <path d="M49.968,329.275v3.113A1.472,1.472,0,0,1,48.5,333.86H42.944v-3.707l.975-.878Z" fill="#0cbc8b"></path>
      <path d="M39.042,320.592v3.61l-.878.975H32.115v-3.113a1.472,1.472,0,0,1,1.472-1.472Z" fill="#0cbc8b"></path>
      <path d="M39.042,330.153v3.707H33.587a1.472,1.472,0,0,1-1.472-1.472v-3.113h6.049Z" fill="#0cbc8b"></path>
    </g>
    <g>
      <path d="M52.1,346.254H33.629a1.515,1.515,0,0,1,0-3.029H52.1a1.515,1.515,0,0,1,0,3.029Z" fill="#fff"></path>
      <path d="M78.1,346.254H59.624a1.515,1.515,0,0,1,0-3.029H78.1a1.515,1.515,0,0,1,0,3.029Z" fill="#fff"></path>
      <path d="M104.092,346.254H85.618a1.515,1.515,0,0,1,0-3.029h18.474a1.515,1.515,0,0,1,0,3.029Z" fill="#fff"></path>
      <path d="M130.086,346.254H111.613a1.515,1.515,0,1,1,0-3.029h18.473a1.515,1.515,0,1,1,0,3.029Z" fill="#fff"></path>
    </g>
    <path d="M130.355,362.639a7.805,7.805,0,0,1-15.61,0,7.73,7.73,0,0,1,2.927-6.049,7.765,7.765,0,0,1,12.683,6.049Z" fill="#fff"></path>
    <path d="M113.77,368.687a7.8,7.8,0,1,1,0-12.1,7.881,7.881,0,0,0-2.927,6.049A7.727,7.727,0,0,0,113.77,368.687Z" fill="#0cbc8b"></path>
  </g>
  <rect x="28.029" y="404.426" width="106.412" height="23.214" transform="translate(162.47 832.065) rotate(-180)" fill="#0cbc8b"></rect>
</svg>